<?xml version="1.0" encoding="utf-8"?>
<svg xmlns="http://www.w3.org/2000/svg" xmlns:xlink="http://www.w3.org/1999/xlink" style="margin: auto; background: none; display: block; shape-rendering: auto;" width="77px" height="77px" viewBox="0 0 100 100" preserveAspectRatio="xMidYMid">
<g transform="rotate(0 50 50)">
  <rect x="49.5" y="14.5" rx="0" ry="0" width="1" height="17" fill="#d91a35">
    <animate attributeName="opacity" values="1;0" keyTimes="0;1" dur="0.970873786407767s" begin="-0.9518370454978108s" repeatCount="indefinite"></animate>
  </rect>
</g><g transform="rotate(7.0588235294117645 50 50)">
  <rect x="49.5" y="14.5" rx="0" ry="0" width="1" height="17" fill="#d91a35">
    <animate attributeName="opacity" values="1;0" keyTimes="0;1" dur="0.970873786407767s" begin="-0.9328003045878546s" repeatCount="indefinite"></animate>
  </rect>
</g><g transform="rotate(14.117647058823529 50 50)">
  <rect x="49.5" y="14.5" rx="0" ry="0" width="1" height="17" fill="#d91a35">
    <animate attributeName="opacity" values="1;0" keyTimes="0;1" dur="0.970873786407767s" begin="-0.9137635636778983s" repeatCount="indefinite"></animate>
  </rect>
</g><g transform="rotate(21.176470588235293 50 50)">
  <rect x="49.5" y="14.5" rx="0" ry="0" width="1" height="17" fill="#d91a35">
    <animate attributeName="opacity" values="1;0" keyTimes="0;1" dur="0.970873786407767s" begin="-0.8947268227679421s" repeatCount="indefinite"></animate>
  </rect>
</g><g transform="rotate(28.235294117647058 50 50)">
  <rect x="49.5" y="14.5" rx="0" ry="0" width="1" height="17" fill="#d91a35">
    <animate attributeName="opacity" values="1;0" keyTimes="0;1" dur="0.970873786407767s" begin="-0.8756900818579859s" repeatCount="indefinite"></animate>
  </rect>
</g><g transform="rotate(35.294117647058826 50 50)">
  <rect x="49.5" y="14.5" rx="0" ry="0" width="1" height="17" fill="#d91a35">
    <animate attributeName="opacity" values="1;0" keyTimes="0;1" dur="0.970873786407767s" begin="-0.8566533409480297s" repeatCount="indefinite"></animate>
  </rect>
</g><g transform="rotate(42.35294117647059 50 50)">
  <rect x="49.5" y="14.5" rx="0" ry="0" width="1" height="17" fill="#d91a35">
    <animate attributeName="opacity" values="1;0" keyTimes="0;1" dur="0.970873786407767s" begin="-0.8376166000380735s" repeatCount="indefinite"></animate>
  </rect>
</g><g transform="rotate(49.411764705882355 50 50)">
  <rect x="49.5" y="14.5" rx="0" ry="0" width="1" height="17" fill="#d91a35">
    <animate attributeName="opacity" values="1;0" keyTimes="0;1" dur="0.970873786407767s" begin="-0.8185798591281173s" repeatCount="indefinite"></animate>
  </rect>
</g><g transform="rotate(56.470588235294116 50 50)">
  <rect x="49.5" y="14.5" rx="0" ry="0" width="1" height="17" fill="#d91a35">
    <animate attributeName="opacity" values="1;0" keyTimes="0;1" dur="0.970873786407767s" begin="-0.799543118218161s" repeatCount="indefinite"></animate>
  </rect>
</g><g transform="rotate(63.529411764705884 50 50)">
  <rect x="49.5" y="14.5" rx="0" ry="0" width="1" height="17" fill="#d91a35">
    <animate attributeName="opacity" values="1;0" keyTimes="0;1" dur="0.970873786407767s" begin="-0.7805063773082048s" repeatCount="indefinite"></animate>
  </rect>
</g><g transform="rotate(70.58823529411765 50 50)">
  <rect x="49.5" y="14.5" rx="0" ry="0" width="1" height="17" fill="#d91a35">
    <animate attributeName="opacity" values="1;0" keyTimes="0;1" dur="0.970873786407767s" begin="-0.7614696363982486s" repeatCount="indefinite"></animate>
  </rect>
</g><g transform="rotate(77.6470588235294 50 50)">
  <rect x="49.5" y="14.5" rx="0" ry="0" width="1" height="17" fill="#d91a35">
    <animate attributeName="opacity" values="1;0" keyTimes="0;1" dur="0.970873786407767s" begin="-0.7424328954882924s" repeatCount="indefinite"></animate>
  </rect>
</g><g transform="rotate(84.70588235294117 50 50)">
  <rect x="49.5" y="14.5" rx="0" ry="0" width="1" height="17" fill="#d91a35">
    <animate attributeName="opacity" values="1;0" keyTimes="0;1" dur="0.970873786407767s" begin="-0.7233961545783362s" repeatCount="indefinite"></animate>
  </rect>
</g><g transform="rotate(91.76470588235294 50 50)">
  <rect x="49.5" y="14.5" rx="0" ry="0" width="1" height="17" fill="#d91a35">
    <animate attributeName="opacity" values="1;0" keyTimes="0;1" dur="0.970873786407767s" begin="-0.70435941366838s" repeatCount="indefinite"></animate>
  </rect>
</g><g transform="rotate(98.82352941176471 50 50)">
  <rect x="49.5" y="14.5" rx="0" ry="0" width="1" height="17" fill="#d91a35">
    <animate attributeName="opacity" values="1;0" keyTimes="0;1" dur="0.970873786407767s" begin="-0.6853226727584237s" repeatCount="indefinite"></animate>
  </rect>
</g><g transform="rotate(105.88235294117646 50 50)">
  <rect x="49.5" y="14.5" rx="0" ry="0" width="1" height="17" fill="#d91a35">
    <animate attributeName="opacity" values="1;0" keyTimes="0;1" dur="0.970873786407767s" begin="-0.6662859318484675s" repeatCount="indefinite"></animate>
  </rect>
</g><g transform="rotate(112.94117647058823 50 50)">
  <rect x="49.5" y="14.5" rx="0" ry="0" width="1" height="17" fill="#d91a35">
    <animate attributeName="opacity" values="1;0" keyTimes="0;1" dur="0.970873786407767s" begin="-0.6472491909385113s" repeatCount="indefinite"></animate>
  </rect>
</g><g transform="rotate(120 50 50)">
  <rect x="49.5" y="14.5" rx="0" ry="0" width="1" height="17" fill="#d91a35">
    <animate attributeName="opacity" values="1;0" keyTimes="0;1" dur="0.970873786407767s" begin="-0.6282124500285551s" repeatCount="indefinite"></animate>
  </rect>
</g><g transform="rotate(127.05882352941177 50 50)">
  <rect x="49.5" y="14.5" rx="0" ry="0" width="1" height="17" fill="#d91a35">
    <animate attributeName="opacity" values="1;0" keyTimes="0;1" dur="0.970873786407767s" begin="-0.6091757091185989s" repeatCount="indefinite"></animate>
  </rect>
</g><g transform="rotate(134.11764705882354 50 50)">
  <rect x="49.5" y="14.5" rx="0" ry="0" width="1" height="17" fill="#d91a35">
    <animate attributeName="opacity" values="1;0" keyTimes="0;1" dur="0.970873786407767s" begin="-0.5901389682086426s" repeatCount="indefinite"></animate>
  </rect>
</g><g transform="rotate(141.1764705882353 50 50)">
  <rect x="49.5" y="14.5" rx="0" ry="0" width="1" height="17" fill="#d91a35">
    <animate attributeName="opacity" values="1;0" keyTimes="0;1" dur="0.970873786407767s" begin="-0.5711022272986864s" repeatCount="indefinite"></animate>
  </rect>
</g><g transform="rotate(148.23529411764707 50 50)">
  <rect x="49.5" y="14.5" rx="0" ry="0" width="1" height="17" fill="#d91a35">
    <animate attributeName="opacity" values="1;0" keyTimes="0;1" dur="0.970873786407767s" begin="-0.5520654863887302s" repeatCount="indefinite"></animate>
  </rect>
</g><g transform="rotate(155.2941176470588 50 50)">
  <rect x="49.5" y="14.5" rx="0" ry="0" width="1" height="17" fill="#d91a35">
    <animate attributeName="opacity" values="1;0" keyTimes="0;1" dur="0.970873786407767s" begin="-0.533028745478774s" repeatCount="indefinite"></animate>
  </rect>
</g><g transform="rotate(162.35294117647058 50 50)">
  <rect x="49.5" y="14.5" rx="0" ry="0" width="1" height="17" fill="#d91a35">
    <animate attributeName="opacity" values="1;0" keyTimes="0;1" dur="0.970873786407767s" begin="-0.5139920045688178s" repeatCount="indefinite"></animate>
  </rect>
</g><g transform="rotate(169.41176470588235 50 50)">
  <rect x="49.5" y="14.5" rx="0" ry="0" width="1" height="17" fill="#d91a35">
    <animate attributeName="opacity" values="1;0" keyTimes="0;1" dur="0.970873786407767s" begin="-0.4949552636588616s" repeatCount="indefinite"></animate>
  </rect>
</g><g transform="rotate(176.47058823529412 50 50)">
  <rect x="49.5" y="14.5" rx="0" ry="0" width="1" height="17" fill="#d91a35">
    <animate attributeName="opacity" values="1;0" keyTimes="0;1" dur="0.970873786407767s" begin="-0.4759185227489054s" repeatCount="indefinite"></animate>
  </rect>
</g><g transform="rotate(183.52941176470588 50 50)">
  <rect x="49.5" y="14.5" rx="0" ry="0" width="1" height="17" fill="#d91a35">
    <animate attributeName="opacity" values="1;0" keyTimes="0;1" dur="0.970873786407767s" begin="-0.4568817818389492s" repeatCount="indefinite"></animate>
  </rect>
</g><g transform="rotate(190.58823529411765 50 50)">
  <rect x="49.5" y="14.5" rx="0" ry="0" width="1" height="17" fill="#d91a35">
    <animate attributeName="opacity" values="1;0" keyTimes="0;1" dur="0.970873786407767s" begin="-0.43784504092899296s" repeatCount="indefinite"></animate>
  </rect>
</g><g transform="rotate(197.64705882352942 50 50)">
  <rect x="49.5" y="14.5" rx="0" ry="0" width="1" height="17" fill="#d91a35">
    <animate attributeName="opacity" values="1;0" keyTimes="0;1" dur="0.970873786407767s" begin="-0.41880830001903674s" repeatCount="indefinite"></animate>
  </rect>
</g><g transform="rotate(204.7058823529412 50 50)">
  <rect x="49.5" y="14.5" rx="0" ry="0" width="1" height="17" fill="#d91a35">
    <animate attributeName="opacity" values="1;0" keyTimes="0;1" dur="0.970873786407767s" begin="-0.3997715591090805s" repeatCount="indefinite"></animate>
  </rect>
</g><g transform="rotate(211.76470588235293 50 50)">
  <rect x="49.5" y="14.5" rx="0" ry="0" width="1" height="17" fill="#d91a35">
    <animate attributeName="opacity" values="1;0" keyTimes="0;1" dur="0.970873786407767s" begin="-0.3807348181991243s" repeatCount="indefinite"></animate>
  </rect>
</g><g transform="rotate(218.8235294117647 50 50)">
  <rect x="49.5" y="14.5" rx="0" ry="0" width="1" height="17" fill="#d91a35">
    <animate attributeName="opacity" values="1;0" keyTimes="0;1" dur="0.970873786407767s" begin="-0.3616980772891681s" repeatCount="indefinite"></animate>
  </rect>
</g><g transform="rotate(225.88235294117646 50 50)">
  <rect x="49.5" y="14.5" rx="0" ry="0" width="1" height="17" fill="#d91a35">
    <animate attributeName="opacity" values="1;0" keyTimes="0;1" dur="0.970873786407767s" begin="-0.34266133637921187s" repeatCount="indefinite"></animate>
  </rect>
</g><g transform="rotate(232.94117647058823 50 50)">
  <rect x="49.5" y="14.5" rx="0" ry="0" width="1" height="17" fill="#d91a35">
    <animate attributeName="opacity" values="1;0" keyTimes="0;1" dur="0.970873786407767s" begin="-0.32362459546925565s" repeatCount="indefinite"></animate>
  </rect>
</g><g transform="rotate(240 50 50)">
  <rect x="49.5" y="14.5" rx="0" ry="0" width="1" height="17" fill="#d91a35">
    <animate attributeName="opacity" values="1;0" keyTimes="0;1" dur="0.970873786407767s" begin="-0.30458785455929943s" repeatCount="indefinite"></animate>
  </rect>
</g><g transform="rotate(247.05882352941177 50 50)">
  <rect x="49.5" y="14.5" rx="0" ry="0" width="1" height="17" fill="#d91a35">
    <animate attributeName="opacity" values="1;0" keyTimes="0;1" dur="0.970873786407767s" begin="-0.2855511136493432s" repeatCount="indefinite"></animate>
  </rect>
</g><g transform="rotate(254.11764705882354 50 50)">
  <rect x="49.5" y="14.5" rx="0" ry="0" width="1" height="17" fill="#d91a35">
    <animate attributeName="opacity" values="1;0" keyTimes="0;1" dur="0.970873786407767s" begin="-0.266514372739387s" repeatCount="indefinite"></animate>
  </rect>
</g><g transform="rotate(261.1764705882353 50 50)">
  <rect x="49.5" y="14.5" rx="0" ry="0" width="1" height="17" fill="#d91a35">
    <animate attributeName="opacity" values="1;0" keyTimes="0;1" dur="0.970873786407767s" begin="-0.2474776318294308s" repeatCount="indefinite"></animate>
  </rect>
</g><g transform="rotate(268.2352941176471 50 50)">
  <rect x="49.5" y="14.5" rx="0" ry="0" width="1" height="17" fill="#d91a35">
    <animate attributeName="opacity" values="1;0" keyTimes="0;1" dur="0.970873786407767s" begin="-0.2284408909194746s" repeatCount="indefinite"></animate>
  </rect>
</g><g transform="rotate(275.29411764705884 50 50)">
  <rect x="49.5" y="14.5" rx="0" ry="0" width="1" height="17" fill="#d91a35">
    <animate attributeName="opacity" values="1;0" keyTimes="0;1" dur="0.970873786407767s" begin="-0.20940415000951837s" repeatCount="indefinite"></animate>
  </rect>
</g><g transform="rotate(282.3529411764706 50 50)">
  <rect x="49.5" y="14.5" rx="0" ry="0" width="1" height="17" fill="#d91a35">
    <animate attributeName="opacity" values="1;0" keyTimes="0;1" dur="0.970873786407767s" begin="-0.19036740909956215s" repeatCount="indefinite"></animate>
  </rect>
</g><g transform="rotate(289.4117647058824 50 50)">
  <rect x="49.5" y="14.5" rx="0" ry="0" width="1" height="17" fill="#d91a35">
    <animate attributeName="opacity" values="1;0" keyTimes="0;1" dur="0.970873786407767s" begin="-0.17133066818960593s" repeatCount="indefinite"></animate>
  </rect>
</g><g transform="rotate(296.47058823529414 50 50)">
  <rect x="49.5" y="14.5" rx="0" ry="0" width="1" height="17" fill="#d91a35">
    <animate attributeName="opacity" values="1;0" keyTimes="0;1" dur="0.970873786407767s" begin="-0.15229392727964972s" repeatCount="indefinite"></animate>
  </rect>
</g><g transform="rotate(303.52941176470586 50 50)">
  <rect x="49.5" y="14.5" rx="0" ry="0" width="1" height="17" fill="#d91a35">
    <animate attributeName="opacity" values="1;0" keyTimes="0;1" dur="0.970873786407767s" begin="-0.1332571863696935s" repeatCount="indefinite"></animate>
  </rect>
</g><g transform="rotate(310.5882352941176 50 50)">
  <rect x="49.5" y="14.5" rx="0" ry="0" width="1" height="17" fill="#d91a35">
    <animate attributeName="opacity" values="1;0" keyTimes="0;1" dur="0.970873786407767s" begin="-0.1142204454597373s" repeatCount="indefinite"></animate>
  </rect>
</g><g transform="rotate(317.6470588235294 50 50)">
  <rect x="49.5" y="14.5" rx="0" ry="0" width="1" height="17" fill="#d91a35">
    <animate attributeName="opacity" values="1;0" keyTimes="0;1" dur="0.970873786407767s" begin="-0.09518370454978108s" repeatCount="indefinite"></animate>
  </rect>
</g><g transform="rotate(324.70588235294116 50 50)">
  <rect x="49.5" y="14.5" rx="0" ry="0" width="1" height="17" fill="#d91a35">
    <animate attributeName="opacity" values="1;0" keyTimes="0;1" dur="0.970873786407767s" begin="-0.07614696363982486s" repeatCount="indefinite"></animate>
  </rect>
</g><g transform="rotate(331.7647058823529 50 50)">
  <rect x="49.5" y="14.5" rx="0" ry="0" width="1" height="17" fill="#d91a35">
    <animate attributeName="opacity" values="1;0" keyTimes="0;1" dur="0.970873786407767s" begin="-0.05711022272986865s" repeatCount="indefinite"></animate>
  </rect>
</g><g transform="rotate(338.8235294117647 50 50)">
  <rect x="49.5" y="14.5" rx="0" ry="0" width="1" height="17" fill="#d91a35">
    <animate attributeName="opacity" values="1;0" keyTimes="0;1" dur="0.970873786407767s" begin="-0.03807348181991243s" repeatCount="indefinite"></animate>
  </rect>
</g><g transform="rotate(345.88235294117646 50 50)">
  <rect x="49.5" y="14.5" rx="0" ry="0" width="1" height="17" fill="#d91a35">
    <animate attributeName="opacity" values="1;0" keyTimes="0;1" dur="0.970873786407767s" begin="-0.019036740909956214s" repeatCount="indefinite"></animate>
  </rect>
</g><g transform="rotate(352.94117647058823 50 50)">
  <rect x="49.5" y="14.5" rx="0" ry="0" width="1" height="17" fill="#d91a35">
    <animate attributeName="opacity" values="1;0" keyTimes="0;1" dur="0.970873786407767s" begin="0s" repeatCount="indefinite"></animate>
  </rect>
</g>
<!-- [ldio] generated by https://loading.io/ --></svg>